<svg xmlns="http://www.w3.org/2000/svg" width="20" height="20" viewBox="0 0 20 20">
    <g fill="none" fill-rule="evenodd">
        <path fill="#F7F7F7" d="M-8-8h32a4 4 0 0 1 4 4v28a4 4 0 0 1-4 4H-8V-8z"/>
        <g fill="#727272">
            <path d="M17.188 18.125H2.813a.312.312 0 1 1 0-.625h14.374a.312.312 0 1 1 0 .625M16.563 2.5H14.061a.312.312 0 1 0 0 .625h.313c.344 0 .625.28.625.625v6.563a4.067 4.067 0 0 1-4.063 4.062 4.067 4.067 0 0 1-4.062-4.063V3.75c0-.345.28-.625.625-.625h.313a.312.312 0 1 0 0-.625H7.5c-.071 0-.14.01-.208.02a.312.312 0 0 0-.104-.02h-3.75a.312.312 0 0 0-.105.02 1.236 1.236 0 0 0-.208-.02h-.313a.312.312 0 1 0 0 .625h.313c.344 0 .625.28.625.625v6.563a5.944 5.944 0 0 0 5.938 5.937c3.112 0 5.668-2.408 5.913-5.459.016-.157.024-.317.024-.479V3.75c0-.345.28-.625.625-.625h.313a.312.312 0 1 0 0-.625"/>
        </g>
    </g>
</svg>
