<svg xmlns="http://www.w3.org/2000/svg" width="20" height="20" viewBox="0 0 20 20">
    <g fill="none" fill-rule="evenodd">
        <path fill="none" d="M-8-8h32a4 4 0 0 1 4 4v28a4 4 0 0 1-4 4H-8V-8z"/>
        <g fill="#FF6B35">
            <path d="M17.813 16.875H2.188a.312.312 0 1 1 0-.625h15.624a.312.312 0 1 1 0 .625M17.813 10.625H2.188a.312.312 0 1 1 0-.625h15.624a.312.312 0 1 1 0 .625M17.813 4.375H2.188a.312.312 0 1 1 0-.625h15.624a.312.312 0 1 1 0 .625M17.813 7.5H2.188a.312.312 0 1 1 0-.625h15.624a.312.312 0 1 1 0 .625M17.813 13.75H2.188a.312.312 0 1 1 0-.625h15.624a.312.312 0 1 1 0 .625"/>
        </g>
    </g>
</svg>
