<svg xmlns="http://www.w3.org/2000/svg" width="20" height="20" viewBox="0 0 20 20">
    <g fill="none" fill-rule="evenodd">
        <path fill="none" d="M-4-8h32v36H-4a4 4 0 0 1-4-4V-4a4 4 0 0 1 4-4z"/>
        <path fill="#FF6B35" d="M5.485 12.5l2.928-6.644 2.95 6.644H5.484zm12.328 5h-.629a.626.626 0 0 1-.578-.386L9.974 2.062a.313.313 0 0 0-.572 0L2.767 17.118a.624.624 0 0 1-.576.382h-.628a.312.312 0 1 0 0 .625h2.5a.312.312 0 1 0 0-.625h-.791c.025-.043.049-.087.068-.134l1.87-4.241h6.43l1.942 4.375h-.77a.312.312 0 1 0 0 .625H17.814a.312.312 0 1 0 0-.625z"/>
    </g>
</svg>
