<?xml version="1.0" encoding="UTF-8"?>
<svg width="20px" height="20px" viewBox="0 0 20 20" version="1.1" xmlns="http://www.w3.org/2000/svg" xmlns:xlink="http://www.w3.org/1999/xlink">
    <!-- Generator: Sketch 50 (54983) - http://www.bohemiancoding.com/sketch -->
    <title>typ-underline-orange</title>
    <desc>Created with Sketch.</desc>
    <defs></defs>
    <g id="Symbols" stroke="none" stroke-width="1" fill="none" fill-rule="evenodd">
        <g id="Text-Style-/-Component-/-Underline-/-Active" transform="translate(-8.000000, -8.000000)" fill="#FF6B35">
            <g id="Icons/20x20/typ-underline" transform="translate(8.000000, 8.000000)">
                <g id="typ-underline">
                    <path d="M17.1875,18.125 L2.8125,18.125 C2.6396875,18.125 2.5,17.9853125 2.5,17.8125 C2.5,17.6396875 2.6396875,17.5 2.8125,17.5 L17.1875,17.5 C17.3603125,17.5 17.5,17.6396875 17.5,17.8125 C17.5,17.9853125 17.3603125,18.125 17.1875,18.125" id="Fill-203"></path>
                    <path d="M16.5625,2.5 L16.25,2.5 L14.375,2.5 L14.0625,2.5 C13.8896875,2.5 13.75,2.6396875 13.75,2.8125 C13.75,2.9853125 13.8896875,3.125 14.0625,3.125 L14.375,3.125 C14.719375,3.125 15,3.4053125 15,3.75 L15,10.3125 C15,12.5525 13.1775,14.375 10.9375,14.375 C8.6975,14.375 6.875,12.5525 6.875,10.3125 L6.875,3.75 C6.875,3.4053125 7.155625,3.125 7.5,3.125 L7.8125,3.125 C7.9853125,3.125 8.125,2.9853125 8.125,2.8125 C8.125,2.6396875 7.9853125,2.5 7.8125,2.5 L7.5,2.5 C7.42875,2.5 7.36,2.509375 7.291875,2.5209375 C7.2590625,2.509375 7.2246875,2.5 7.1875,2.5 L3.4375,2.5 C3.4003125,2.5 3.3659375,2.509375 3.333125,2.5209375 C3.265,2.509375 3.19625,2.5 3.125,2.5 L2.8125,2.5 C2.6396875,2.5 2.5,2.6396875 2.5,2.8125 C2.5,2.9853125 2.6396875,3.125 2.8125,3.125 L3.125,3.125 C3.469375,3.125 3.75,3.4053125 3.75,3.75 L3.75,10.3125 C3.75,13.5865625 6.4134375,16.25 9.6875,16.25 C12.8,16.25 15.355625,13.8415625 15.600625,10.79125 C15.616875,10.63375 15.625,10.4740625 15.625,10.3125 L15.625,3.75 C15.625,3.4053125 15.905625,3.125 16.25,3.125 L16.5625,3.125 C16.7353125,3.125 16.875,2.9853125 16.875,2.8125 C16.875,2.6396875 16.7353125,2.5 16.5625,2.5" id="Fill-204"></path>
                </g>
            </g>
        </g>
    </g>
</svg>