<svg xmlns="http://www.w3.org/2000/svg" width="20" height="20" viewBox="0 0 20 20">
    <g fill="none" fill-rule="evenodd">
        <path fill="none" d="M-4-8h32v36H-4a4 4 0 0 1-4-4V-4a4 4 0 0 1 4-4z"/>
        <path fill="#727272" d="M9.375 2.5A3.129 3.129 0 0 1 12.5 5.625 3.129 3.129 0 0 1 9.375 8.75H8.75V2.5h.625zm-.625 15V9.375h.938a4.067 4.067 0 0 1 4.062 4.063A4.067 4.067 0 0 1 9.687 17.5H8.75zm4.83-8.54a3.75 3.75 0 0 0 2.045-3.335 3.754 3.754 0 0 0-3.75-3.75H5.312a.312.312 0 0 0-.104.02A1.236 1.236 0 0 0 5 1.876h-.313a.312.312 0 1 0 0 .625H5c.344 0 .625.28.625.625v13.75c0 .345-.28.625-.625.625h-.313a.312.312 0 1 0 0 .625H5c.071 0 .14-.01.208-.02.033.01.068.02.104.02h6.875a4.693 4.693 0 0 0 4.688-4.688c0-2.1-1.388-3.882-3.295-4.476z"/>
    </g>
</svg>
