<svg xmlns="http://www.w3.org/2000/svg" width="20" height="20" viewBox="0 0 20 20">
    <g fill="none" fill-rule="evenodd">
        <path fill="none" d="M-8-8h32a4 4 0 0 1 4 4v28a4 4 0 0 1-4 4H-8V-8z"/>
        <path fill="#FF6B35" d="M5.04 14.75l1.91-4.268 1.916 4.268H5.04zm8.7 3h-.526a.522.522 0 0 1-.48-.306L8.24 7.4A.261.261 0 0 0 8 7.25a.261.261 0 0 0-.24.151L3.266 17.445a.522.522 0 0 1-.48.305H2.26A.255.255 0 0 0 2 18c0 .138.117.25.26.25h2.088c.144 0 .26-.112.26-.25a.255.255 0 0 0-.26-.25h-.66a.98.98 0 0 0 .058-.109l1.07-2.391H9.09l1.122 2.5h-.647a.255.255 0 0 0-.26.25c0 .138.116.25.26.25h4.174c.144 0 .261-.112.261-.25a.255.255 0 0 0-.26-.25z"/>
    </g>
</svg>
