<svg xmlns="http://www.w3.org/2000/svg" width="20" height="20" viewBox="0 0 20 20">
    <g fill="none" fill-rule="evenodd">
        <path fill="none" d="M-8-8h36v36H-8z"/>
        <path fill="#FF6B35" d="M15.327 1.875h-.37c-.061 0-.12.01-.18.015-.025-.006-.048-.015-.075-.015H9.048a.312.312 0 1 0 0 .625h.639a.62.62 0 0 1 .498.248c.119.156.157.356.106.539l-4.044 13.3c-.15.538-.645.913-1.204.913h-.37a.312.312 0 1 0 0 .625h.37c.061 0 .12-.01.18-.015.025.006.049.015.075.015h5.654a.312.312 0 1 0 0-.625h-.639a.62.62 0 0 1-.498-.247.617.617 0 0 1-.106-.54l4.044-13.3c.15-.538.645-.913 1.204-.913h.37a.312.312 0 1 0 0-.625"/>
    </g>
</svg>
