<svg xmlns="http://www.w3.org/2000/svg" width="20" height="20" viewBox="0 0 20 20">
    <g fill="none" fill-rule="evenodd">
        <path fill="none" d="M-4-8h32v36H-4a4 4 0 0 1-4-4V-4a4 4 0 0 1 4-4z"/>
        <g fill="#727272">
            <path d="M12.727 9.487c-.244 0-.49-.031-.732-.096a.312.312 0 1 1 .162-.603 2.234 2.234 0 0 0 2.143-.575l2.55-2.55c.42-.419.65-.976.65-1.569 0-.592-.23-1.15-.65-1.569a2.202 2.202 0 0 0-1.569-.65c-.593 0-1.15.231-1.569.65l-2.55 2.55a2.229 2.229 0 0 0-.574 2.145.312.312 0 1 1-.604.161c-.262-.979.02-2.032.736-2.748l2.55-2.55a2.825 2.825 0 0 1 2.011-.833c.76 0 1.474.296 2.01.834.538.536.834 1.25.834 2.01 0 .76-.296 1.474-.833 2.011l-2.55 2.55c-.539.54-1.27.832-2.015.832M4.094 18.125c-.76 0-1.474-.296-2.011-.833a2.827 2.827 0 0 1-.833-2.01c0-.76.296-1.474.833-2.011l2.55-2.55a2.853 2.853 0 0 1 2.748-.737.313.313 0 0 1-.161.604 2.228 2.228 0 0 0-2.145.575l-2.55 2.55c-.42.419-.65.976-.65 1.568 0 .593.23 1.15.65 1.57.419.419.976.65 1.569.65s1.15-.231 1.569-.65l2.55-2.55c.558-.559.778-1.38.575-2.144a.312.312 0 1 1 .603-.161c.262.978-.02 2.03-.736 2.746l-2.55 2.55a2.825 2.825 0 0 1-2.011.833"/>
            <path d="M6.331 13.356a.312.312 0 0 1-.22-.533l6.711-6.712a.313.313 0 0 1 .443.442l-6.713 6.712a.312.312 0 0 1-.22.091M16.563 15h-3.75a.312.312 0 1 1 0-.625h3.75a.312.312 0 1 1 0 .625m-1.875-4.375a4.067 4.067 0 0 0-4.063 4.063 4.067 4.067 0 0 0 4.063 4.062 4.067 4.067 0 0 0 4.062-4.062 4.067 4.067 0 0 0-4.063-4.063"/>
        </g>
    </g>
</svg>
